<svg width="100" height="100" viewBox="0 0 100 100" fill="none" xmlns="http://www.w3.org/2000/svg">
<path fill-rule="evenodd" clip-rule="evenodd" d="M5.01943 3.95104C4.69426 4.06354 4.41207 4.2741 4.2118 4.55367C4.01153 4.83323 3.90306 5.16801 3.90137 5.51179C3.89975 5.8476 8.96847 69.936 9.01459 70.1629L9.0446 70.3092H25.6301V3.82697L15.4985 3.8289C5.8275 3.83083 5.35072 3.83631 5.01976 3.95104H5.01943ZM74.4178 37.0681V70.3095H90.9879L91.0233 70.0334C91.2317 68.3953 96.1527 5.31327 96.0895 5.08801C95.9279 4.51179 95.413 4.02033 94.8433 3.89819C94.6117 3.84856 91.482 3.82729 84.4649 3.82729H74.4178V37.0681Z" fill="#E4042C"/>
<path fill-rule="evenodd" clip-rule="evenodd" d="M3.98194 0.0670762C1.7529 0.38709 0 2.40031 0 4.63879C0 5.55694 7.21613 96.0402 7.32258 96.4608C7.79065 98.3045 9.4529 99.7244 11.4032 99.9464C11.8161 99.9935 23.9423 100.009 50.4468 99.9954L88.8916 99.9761L89.3774 99.8256C91.041 99.3106 92.2923 98.0499 92.6919 96.4853C92.9068 95.6438 100.095 4.75287 99.999 4.09222C99.7184 2.16956 98.4181 0.699369 96.5023 0.139265C96.0632 0.0110013 4.86871 -0.0605425 3.98194 0.0670762ZM96.2742 1.37968C97.6871 1.85342 98.651 3.01197 98.7845 4.39709C98.8368 4.94237 91.6271 95.6335 91.491 96.1417C91.1732 97.3245 90.2584 98.2432 89.0213 98.6219C88.4987 98.7821 11.7671 98.812 11.1232 98.6528C9.93903 98.3593 8.92871 97.4282 8.58387 96.3132C8.45871 95.9084 1.23613 5.8096 1.23548 4.64846C1.23548 3.09351 2.43097 1.67391 4.0329 1.32876C4.78419 1.16666 95.7887 1.21693 96.2742 1.37968V1.37968ZM48.2348 4.64943C46.1384 4.87083 43.2797 5.65362 41.0506 6.61656C39.7994 7.157 39.5506 7.34875 39.5506 7.77157C39.5503 8.31943 38.5216 9.52955 37.729 9.91466C36.9455 10.2949 36.5203 10.3987 35.0745 10.5631C34.9203 10.5805 34.7787 10.6353 34.7597 10.6849C34.6468 10.9794 35.8252 12.3639 36.4119 12.6266C36.9658 12.8737 36.6055 12.9962 35.1597 13.052C33.7032 13.1074 33.28 13.3095 32.9068 14.1274C32.7277 14.5199 32.7526 14.6266 33.1745 15.2682C34.1336 16.7271 34.1087 17.565 33.0819 18.3813C31.7916 19.4068 31.7803 19.5821 32.7487 23.5199C33.1219 25.0378 33.4706 26.401 33.5235 26.5489C33.6242 26.829 33.5787 26.9624 33.3829 26.9624C33.1926 26.9624 32.7958 27.2466 32.669 27.4738C32.131 28.4381 32.2865 29.9231 33.2652 33.169C33.9577 35.4661 34.0413 35.7742 34.2523 36.8081C34.78 39.3991 35.4136 40.3143 36.6661 40.296C37.1681 40.2882 37.1855 40.3108 37.239 41.0324C37.3358 42.3363 37.6577 43.6031 38.181 44.7368C38.3503 45.1029 38.4448 45.4291 38.5019 45.8413C38.7552 47.6766 39.8932 49.722 41.6106 51.4294C42.3403 52.1552 42.9197 52.625 44.771 53.994C45.5135 54.5425 46.1206 55.0124 46.1206 55.0375C46.1206 55.063 45.4548 55.1001 44.641 55.1204C43.199 55.1565 42.5758 55.2383 42.3984 55.4156C42.1997 55.6141 42.13 58.8381 42.3165 59.1987C42.5365 59.6238 43.2326 59.6605 47.6332 59.4807C48.7648 59.4346 48.7032 59.3453 48.2694 60.3956C47.9306 61.2285 47.5972 62.0637 47.2694 62.9009C46.4248 65.0505 45.6284 66.8552 44.8061 68.481C44.0045 70.0647 43.9813 69.8932 45.0294 70.1104C45.2342 70.153 45.6971 70.3321 46.0584 70.5087C46.9926 70.9651 46.9606 70.9747 47.3839 70.0982C48.1336 68.5448 49.4826 65.1381 49.8155 63.9567C49.9084 63.6264 50.0084 63.3556 50.0368 63.3556C50.1045 63.3556 50.0968 69.3418 50.0271 70.6019C49.9529 71.9412 49.9874 71.9812 51.0126 71.7375C51.4136 71.6453 51.8231 71.5943 52.2345 71.5851C52.9681 71.5748 52.9674 71.5754 53.0771 70.7005C53.3765 68.3163 52.8384 62.6657 52.0707 60.1294C51.8603 59.4349 51.8623 59.4162 52.1545 59.3679C52.6274 59.2902 54.6245 59.325 55.8487 59.4327C57.2181 59.5535 57.3955 59.5371 57.5268 59.2767C57.68 58.9737 57.7268 55.8397 57.5829 55.5512C57.3652 55.1155 56.3965 54.9183 54.8539 54.995C53.9236 55.0411 53.9142 55.0308 54.5313 54.6515C56.5677 53.3988 59.6645 50.6392 60.5197 49.3147C61.8313 47.2837 62.9671 43.5767 62.9684 41.3227C62.969 40.344 62.9903 40.3121 63.6658 40.2715C64.9677 40.1941 65.369 39.5264 66.4471 35.6485C67.5777 31.5799 67.8671 30.2418 67.8745 29.042C67.8819 27.8496 67.7665 27.6259 66.8548 27.0684C66.6381 26.936 66.6184 27.0459 67.1748 25.2863C67.7619 23.4268 67.911 22.8467 67.9565 22.2379L67.9965 21.7049L67.6732 21.3933C67.1003 20.8406 67.0216 20.6682 66.9052 19.7165C65.9423 11.8293 60.5497 6.06193 52.9513 4.79122C52.1636 4.65974 49.0313 4.56564 48.2352 4.64943H48.2348ZM51.139 6.16925C54.2261 6.47959 57.1513 7.6678 59.9703 9.75707C62.7616 11.8257 64.2874 14.5834 64.8684 18.6114C65.1058 20.2553 64.9477 23.9798 64.6252 24.3507C64.3981 24.6118 64.33 24.4945 63.9526 23.1899C63.2358 20.7123 62.6658 19.2753 61.8877 17.9846C61.4048 17.1831 61.3306 17.3433 61.3203 19.2134L61.3119 20.77L61.5061 21.0397C62.34 22.1986 62.5448 22.635 62.8816 23.9692C63.1613 25.0765 63.2394 25.963 63.0639 26.0304C62.9981 26.0552 62.5326 26.0123 62.0294 25.9344C60.9236 25.7632 59.43 25.7271 56.4313 25.7996C53.6316 25.8673 53.1229 25.9982 51.78 26.9953C51.0352 27.5483 50.9616 27.5779 50.5484 27.4893C50.0723 27.3897 49.5798 27.3989 49.1077 27.5164C48.6323 27.6395 48.4916 27.5892 47.8445 27.0658C46.4174 25.9112 45.9929 25.8283 41.4777 25.8267L37.7777 25.8251L37.8106 25.3053C37.8677 24.3984 38.1494 23.9775 38.9448 23.6108C39.5284 23.3417 39.4816 23.4422 39.8371 21.6801C40.5384 18.2009 41.5848 16.3014 43.4974 15.0326C44.911 14.0951 47.5506 14.1776 49.6174 15.2241C50.0884 15.4625 50.1197 15.4538 50.7561 14.904C51.5165 14.2482 51.5165 14.2495 50.6581 13.4113C47.6703 10.4941 44.2506 9.85633 40.1587 11.4529C39.6632 11.6459 39.249 11.7806 39.2377 11.7516C39.0506 11.2659 41.6516 9.46155 43.4055 8.85988C44.5829 8.45607 44.4842 8.0542 43.2077 8.05195C42.7148 8.05098 42.629 7.94431 42.8961 7.66587C43.7658 6.759 48.4842 5.90209 51.139 6.16925V6.16925ZM43.5081 13.0278C43.8081 13.1528 43.7574 13.2205 43.1726 13.4745C41.369 14.2579 40.3132 15.263 39.2755 17.1851C38.9965 17.7013 38.8481 17.8941 38.479 18.2157C37.5532 19.0236 37.4442 19.1851 37.0906 20.2685C36.6026 21.7648 36.3519 23.1519 36.2403 24.973C36.1765 26.0198 36.119 26.1577 35.6513 26.3942C35.2019 26.6214 35.2529 26.702 34.8397 25.1071C33.6842 20.6443 33.6839 20.6491 35.3184 18.2962C35.7216 17.7158 35.6513 16.9437 35.0836 15.7323C34.7448 15.0094 34.7055 15.0449 36.0377 14.8757C37.2771 14.7184 38.8629 14.2415 40.0497 13.6688C41.4448 12.9959 42.8206 12.7406 43.5081 13.0275V13.0278ZM38.2606 26.6801C38.6177 27.003 38.2219 27.4287 37.7271 27.2537C37.5761 27.2012 37.3694 27.1577 37.2681 27.1577C37.0036 27.1577 36.8965 26.9414 37.0929 26.8038C37.1726 26.7484 37.3265 26.702 37.4348 26.7017C37.5432 26.701 37.6758 26.6724 37.729 26.6375C37.879 26.5409 38.129 26.5609 38.2606 26.6801V26.6801ZM62.4939 26.6972C62.9632 26.781 63.1174 27.1577 62.6819 27.1577C62.5981 27.1577 62.4055 27.2012 62.2532 27.255C61.8929 27.382 61.8236 27.3781 61.6677 27.2228C61.3826 26.9376 61.5977 26.5283 61.9923 26.6047C62.1181 26.6292 62.3439 26.6707 62.4939 26.6972V26.6972ZM41.1648 27.5309C41.1813 27.645 41.1206 27.7162 40.8868 27.8557C40.7223 27.954 40.2629 28.2466 39.8661 28.5057C39.1003 29.0066 38.9171 29.0588 38.6984 28.8406C38.4652 28.6073 38.7084 28.0014 39.1739 27.6566C39.589 27.3491 41.1255 27.2521 41.1652 27.5309H41.1648ZM59.7461 27.4236C60.5258 27.6195 60.6797 28.8474 59.9248 28.8474C59.4497 28.8474 57.939 27.7349 58.0439 27.4622C58.0945 27.3298 59.2677 27.3034 59.7461 27.4236ZM44.6487 27.6733C44.9813 27.8345 45.3181 28.2521 45.2523 28.4226C45.2206 28.5054 45.1071 28.5151 44.5455 28.4838C43.7406 28.4387 43.2423 28.5499 42.2487 28.9953C41.4694 29.3443 41.0519 29.4464 40.8394 29.3404C40.4916 29.1674 40.6384 28.9853 41.5348 28.4761C41.8038 28.3234 42.0724 28.17 42.3406 28.0159C43.2265 27.5048 44.0481 27.3826 44.6487 27.6733ZM57.1006 27.8654C57.249 27.9408 57.5981 28.2089 57.8765 28.461C58.1548 28.7126 58.5797 29.0507 58.8203 29.2118C59.3294 29.5528 59.3571 29.5857 59.2284 29.692C58.9932 29.887 58.259 29.6124 57.5439 29.0626C56.8697 28.5438 56.4074 28.4464 55.4245 28.616C54.4623 28.7816 54.3768 28.4703 55.26 28.0178C55.9861 27.6459 56.5745 27.5973 57.1006 27.8654V27.8654ZM63.4984 28.0188C63.6516 28.3034 63.6736 28.7004 63.6113 30.0768C63.5313 31.8599 63.6171 31.9718 64.4371 31.1529C64.7832 30.8074 64.8297 30.6421 64.7452 30.053C64.6087 29.1013 65.0442 28.2947 65.6129 28.4452C66.5513 28.6927 66.559 29.4497 65.6561 32.6814C65.454 33.4068 65.2624 34.1351 65.0813 34.8661C64.3819 37.7697 63.8955 38.5419 63 38.168C62.6071 38.004 62.5026 38.0723 62.0736 38.7739C61.5884 39.5667 61.5577 39.6717 61.5123 40.7075C61.2936 45.7182 58.8358 49.8683 55.2597 51.2651C54.3313 51.6279 54.0887 51.6234 53.6732 51.2354C53.3894 50.9702 53.1587 50.8648 53.1384 50.9918C53.1339 51.0185 53.1255 51.3637 53.119 51.7588C53.1055 52.6089 53.0471 52.7527 52.3668 53.6073C51.7387 54.3966 51.5765 54.7578 51.4235 55.7027C51.2345 56.8738 48.4526 54.1123 47.6761 51.9828C47.4526 51.3695 47.4668 50.4803 47.7132 49.6756C48.1726 48.1755 48.2648 47.4507 48.1197 46.481C48.079 46.2103 48.09 46.1255 48.1758 46.0395C48.3584 45.8571 48.5136 46.004 49.0029 46.8232C49.3184 47.3511 49.5174 46.8619 49.4071 45.83C49.349 45.2915 49.1168 45.0256 48.5642 44.8648C47.4129 44.5306 48.2123 43.8664 49.6987 43.9225C52.1794 44.0156 52.7161 43.9676 54.1087 43.5274C55.0987 43.2144 55.1797 43.2141 55.6616 43.5254C56.1503 43.8413 56.1852 43.9338 56.2268 45.0291C56.2977 46.9112 56.9758 46.8097 57.3755 44.8571C57.57 43.9064 57.6868 43.6076 57.9932 43.2779C58.7558 42.4549 59.0868 41.2573 58.9726 39.7343C58.9029 38.8061 58.7465 38.5602 58.001 38.2067C57.5297 37.983 56.9374 37.3904 56.3629 36.5663C55.4558 35.266 55.0358 34.8699 54.1984 34.5257C53.43 34.2099 53.2006 34.3527 53.3774 35.0349C53.6229 35.9811 53.5148 36.1925 52.5403 36.6672C51.0694 37.3839 49.8358 37.3382 48.6577 36.5241C47.4932 35.7194 47.3413 34.7094 48.1336 33.0388C48.491 32.285 48.5477 32.0794 48.69 31.0243C48.9474 29.1148 49.1377 28.7168 49.7948 28.7168C50.3536 28.7168 50.5987 28.9453 50.7723 29.6272C51.1084 30.9466 51.6474 31.4748 52.2281 31.0549C52.629 30.7645 52.6661 30.6369 52.4723 30.2183C52.2077 29.6485 52.3481 29.5592 52.9906 29.888C53.8319 30.3185 55.3326 30.4912 56.3919 30.2789C57.5452 30.0485 58.0177 30.1426 58.2797 30.6559C58.4552 30.9995 58.5216 31.0401 59.0358 31.1206C59.8497 31.2479 59.9203 31.3208 59.7442 31.8503C59.5281 32.5006 58.8548 32.9666 57.8003 33.1973C57.1245 33.3446 57.1145 33.3514 57.1145 33.6456C57.1145 34.2031 57.61 34.3269 58.7126 34.0452C60.2248 33.6585 60.8729 32.6888 61.4042 30.0169C61.7413 28.3211 61.7555 28.2959 62.5139 28.043C63.1458 27.8322 63.3945 27.8261 63.4984 28.0188V28.0188ZM35.3674 28.6495C35.7836 28.9028 35.9474 29.4552 35.759 29.9682C35.5403 30.5631 35.5539 30.7288 36.0365 33.3636C36.4268 35.4925 36.3345 36.0411 35.6832 35.47C35.3961 35.2186 35.2865 35.0166 35.1655 34.5206C35.1148 34.3134 34.8497 33.3395 34.5758 32.3565C34.0165 30.3472 33.9377 29.8177 34.1106 29.2234C34.2987 28.5783 34.8429 28.3295 35.3674 28.6495ZM43.9823 30.1464C44.8436 30.2969 45.1671 30.3056 45.9058 30.1989C46.6084 30.0974 46.6952 30.1619 46.3584 30.5341C46.0748 30.8477 46.0755 30.8425 46.2907 31.2534C46.781 32.1912 45.6681 33.0733 43.7874 33.237C43.2036 33.2879 43.1284 33.3427 43.1284 33.7168C43.1284 34.0968 43.3058 34.1841 44.059 34.1758C44.9139 34.1661 44.8848 34.1635 44.8848 34.2515C44.8848 34.2934 44.7984 34.4616 44.6929 34.626C44.5874 34.7903 44.4555 35.0991 44.4 35.3118C44.2716 35.8048 44.2406 35.8325 43.4961 36.1252C43.1552 36.2592 42.6913 36.5003 42.4655 36.6608C40.5677 38.0101 39.6526 37.605 38.8026 35.0391C38.211 33.255 38.3432 32.9743 39.5116 33.5341C40.2945 33.9096 40.6058 33.9376 40.7826 33.6479C41.0587 33.1954 40.9877 33.0388 40.3748 32.7478C39.3 32.2379 38.5919 31.109 39.1265 30.7591C39.3039 30.6434 39.4371 30.6862 39.769 30.9666C40.3835 31.4861 40.6319 31.4954 41.0703 31.0165C41.9219 30.0865 42.5561 29.897 43.9823 30.1464V30.1464ZM46.5829 34.2985C46.7171 34.4071 46.7252 34.4403 46.6555 34.5934C46.5145 34.9028 46.49 35.4187 46.6013 35.7359C46.8723 36.5051 46.5184 36.8354 45.9658 36.3295C45.1194 35.5535 45.7136 33.5953 46.5829 34.2985ZM53.9939 37.5718C54.1132 37.6524 54.4487 38.0104 54.7397 38.3678C55.2926 39.0469 56.001 39.6466 56.3987 39.7723C58.2258 40.3508 54.92 41.1871 52.4552 40.77C52.1016 40.7101 51.4468 40.5448 50.9994 40.4023C50.051 40.1 49.7252 40.0965 49.0139 40.3807C47.4139 41.0201 44.5903 41.0881 43.4584 40.5148C42.7719 40.1667 42.7865 39.9792 43.5226 39.6692C43.7887 39.557 44.3948 39.2093 44.869 38.8964C46.3052 37.9492 46.9636 37.7932 47.6168 38.2454C49.0955 39.2686 50.8074 39.363 51.681 38.4697C51.9 38.246 52.1206 38.0958 52.3639 38.0053C52.5887 37.9191 52.8067 37.8163 53.0161 37.6975C53.5339 37.3888 53.6929 37.3688 53.9939 37.5718V37.5718ZM41.1074 39.7278C41.2361 39.8645 41.2636 39.9889 41.3129 40.654C41.5171 43.4007 42.4245 46.3614 43.0616 46.3614C43.1923 46.3614 43.2526 46.2786 43.4577 45.8168C43.9194 44.7771 44.1181 44.7011 44.3242 45.4842C44.55 46.3427 45.0236 47.8819 45.2113 48.3691C45.5068 49.1352 45.3965 49.3195 44.6436 49.3166C41.9326 49.307 38.0265 43.0659 39.2177 40.6476C39.6539 39.7629 40.6736 39.2666 41.1074 39.7278V39.7278ZM52.4232 41.8422C53.3813 41.9347 53.34 42.1042 52.2977 42.3559C51.3013 42.5967 48.9839 42.7655 48.4942 42.6331C47.9842 42.4955 47.4081 42.0063 47.6329 41.9022C47.9781 41.7423 50.9984 41.7046 52.4232 41.8422ZM72.7913 75.2542C65.5323 75.7601 61.1161 79.7788 61.1216 85.8739C61.1268 91.979 67.2929 95.1056 75.9236 93.3786C77.7236 93.0186 77.6113 93.1263 77.9274 91.4582C78.2571 89.7218 78.2413 89.7021 76.8129 90.0628C70.4465 91.6709 66.3207 88.5768 67.6816 83.2158C68.3994 80.3902 70.359 78.5123 72.9477 78.1697C75.0161 77.8958 76.3803 78.7672 76.4842 80.4288C76.5294 81.1572 76.5377 81.162 77.6423 81.162C78.7487 81.162 78.6119 81.375 79.1997 78.7369C79.8571 75.7869 79.89 75.9638 78.6261 75.675C76.7165 75.2384 74.8977 75.1072 72.7913 75.2542V75.2542ZM24.2397 75.6544C24.1348 75.821 23.8736 76.92 23.8736 77.1949C23.8736 77.4059 23.9606 77.4904 24.4158 77.7173C24.8877 77.9528 25.1287 78.3154 25.1616 78.8404C25.1861 79.2326 23.3377 88.0025 22.9574 89.2967C22.6155 90.4614 22.0477 91.2029 21.3445 91.4028C20.6723 91.5942 20.6697 91.5968 20.5065 92.2442C20.1365 93.7137 19.6594 93.5748 25.0745 93.5748C30.2968 93.5748 29.7461 93.6706 29.9613 92.726C30.2065 91.6477 30.1777 91.5001 29.6826 91.3045C29.3935 91.1904 29.0387 90.8298 28.9494 90.559C28.8845 90.3625 29.6155 86.6145 29.8994 85.6886C29.951 85.52 29.9497 85.5181 30.8368 87.1088C33.36 91.6322 34.5548 92.9055 36.7571 93.4169C37.4216 93.571 42.4377 93.637 42.6306 93.4943C42.7506 93.405 43.0577 92.3009 43.0616 91.9442C43.0645 91.6751 42.8532 91.5407 42.34 91.4859C41.28 91.3731 41.1342 91.2216 38.001 86.9841C35.6065 83.7469 35.5123 83.6083 35.6265 83.5004C36.299 82.8649 42.0468 78.1945 42.3355 78.0492C42.8013 77.8146 43.4458 77.6145 43.93 77.5542C44.4571 77.4881 44.5381 77.3985 44.6887 76.7105C44.9797 75.384 45.3965 75.5084 40.6565 75.5084C36.3629 75.5084 36.5455 75.4933 36.4597 75.8539C36.1371 77.2094 36.1484 77.3615 36.59 77.6083C37.2768 77.9928 37.279 77.9899 34.0713 80.6547C30.4923 83.6283 30.3797 83.7202 30.3545 83.6902C30.3132 83.6415 31.4177 78.726 31.5232 78.4878C31.6716 78.1536 32.041 77.8165 32.4626 77.6306C32.929 77.425 32.9397 77.4089 33.1026 76.6602C33.381 75.3798 33.8752 75.5084 28.6671 75.5084H24.3316L24.2397 75.6544ZM46.2268 75.6544C46.1216 75.821 45.8606 76.92 45.8606 77.1949C45.8606 77.4072 45.909 77.454 46.3829 77.7015C46.6026 77.8162 46.8094 77.9893 46.9287 78.1591C47.299 78.6857 47.3381 78.4453 45.6394 86.1349C43.9571 93.7534 44.0513 93.2623 44.2342 93.445C44.4245 93.6348 51.4826 93.6503 51.7036 93.4611C51.8568 93.3299 52.2074 91.8443 52.1374 91.6235C52.1145 91.5516 51.9848 91.4366 51.849 91.3673C50.7574 90.8107 50.741 90.4849 51.6181 86.7672L51.6526 86.6212H54.6639C56.971 86.6212 57.7003 86.6019 57.7845 86.54C57.8916 86.4604 58.4803 84.0379 58.4803 83.6767C58.4803 83.3035 58.5074 83.3067 55.3365 83.3067C52.6119 83.3067 52.4306 83.2999 52.4319 83.1933C52.4326 83.1307 52.6616 82.0412 52.9406 80.7724L53.4481 78.4649L55.5252 78.4478C58.6545 78.4217 58.9994 78.5858 59.0003 80.1011C59.0006 80.8017 59.0874 80.8533 60.2168 80.8259C60.9168 80.8088 61.0984 80.7843 61.1868 80.696C61.2903 80.5925 62.3184 76.201 62.3184 75.8626C62.3184 75.4865 62.8119 75.5081 54.1997 75.5081H46.319L46.2268 75.6544ZM94.8436 93.5097C94.8436 93.7031 94.8471 93.705 95.2013 93.705H95.5594V96.1092H96.0145V93.705H96.3726C96.7265 93.705 96.73 93.7031 96.73 93.5097V93.3148H94.8436V93.5097ZM97.3807 94.7121V96.1092H97.7706L97.7729 95.1182L97.7752 94.1272L98.0429 94.696C98.3829 95.4179 98.4436 95.4211 98.7932 94.7283L99.0642 94.1923L99.0677 95.1507L99.0719 96.1092H99.4619V93.3148H99.2626C99.0732 93.3148 99.0474 93.3489 98.7513 93.9812L98.439 94.6474L98.1045 93.9812C97.7919 93.3592 97.7568 93.3148 97.5752 93.3148H97.3807V94.7121Z" fill="#050505"/>
<path fill-rule="evenodd" clip-rule="evenodd" d="M4.16338 1.33744C2.48757 1.61846 1.3079 3.01066 1.30273 4.71321C1.30112 5.32875 8.41306 95.1388 8.51757 95.8168C8.72918 97.1939 9.89435 98.3827 11.2821 98.638C11.9505 98.7604 88.2414 98.734 88.8266 98.6109C90.0492 98.3531 91.0427 97.4656 91.3988 96.3118C91.5253 95.9032 98.7466 5.80442 98.7466 4.63651C98.7466 3.25237 97.8311 2.00615 96.4179 1.46635L96.0469 1.32487L50.1866 1.31714C24.9634 1.31327 4.25306 1.32197 4.16338 1.33712V1.33744ZM25.6301 37.0681V70.3095H17.3034C12.7237 70.3095 8.97725 70.2876 8.97757 70.2609C8.97822 70.2341 7.81951 55.6266 6.40338 37.7993C3.92596 6.6088 3.83241 5.37419 3.92854 5.04386C4.05693 4.60203 4.42273 4.17664 4.84241 3.98134L5.17144 3.82858L15.4005 3.82794L25.6295 3.8273L25.6301 37.0681ZM95.3366 4.05611C95.7143 4.28846 96.043 4.74576 96.1321 5.16181C96.1821 5.39675 95.6611 12.1828 93.6347 37.6723C92.2259 55.3907 91.073 69.9818 91.0721 70.0981L91.0708 70.3092H74.3527V3.82504L84.6847 3.84212L95.0166 3.85952L95.3366 4.05611ZM52.8534 4.73158C54.5782 5.01099 56.446 5.59623 57.784 6.2759C62.9482 8.89949 66.2159 13.7126 66.9656 19.7999C67.0756 20.6917 67.2082 20.9704 67.7127 21.3694C68.2076 21.7613 68.1311 22.4032 67.2643 25.1293C66.6637 27.0184 66.6776 26.934 66.9489 27.079C68.3947 27.8531 68.3124 29.1751 66.393 35.9956C65.3985 39.5312 64.9501 40.2354 63.634 40.3324C63.0205 40.3775 63.0363 40.3543 63.035 41.2089C63.0318 43.6327 61.7079 47.7929 60.3582 49.6237C59.4676 50.8316 56.896 53.1348 55.1305 54.3063C54.6653 54.6147 54.2608 54.887 54.2321 54.9105C54.203 54.9344 54.6569 54.9537 55.2405 54.9534C57.735 54.9518 57.7711 54.9901 57.7063 57.5715C57.6514 59.7597 57.745 59.6543 55.9956 59.498C54.2308 59.3408 53.475 59.3092 52.6724 59.3595L51.9272 59.4059L51.9801 59.6099C52.8918 63.1368 53.3334 66.9235 53.1801 69.8996C53.0953 71.5493 53.0518 71.6237 52.1576 71.6402C51.7143 71.6482 51.2963 71.7011 50.9218 71.7965C50.3879 71.9325 50.3443 71.9347 50.1498 71.8342L49.9434 71.7278L49.9831 70.4823C50.0682 67.8235 50.1034 64.8339 50.0576 64.1626L50.0098 63.4594L49.7934 64.1709C49.2934 65.8161 47.5018 70.1803 47.1201 70.683C46.9076 70.9628 46.8401 70.9544 45.9795 70.5364C45.5421 70.3237 45.084 70.1516 44.8524 70.112C44.2376 70.0079 44.186 69.9915 44.1463 69.888C44.1253 69.8332 44.4924 69.0085 44.9779 68.0188C45.9427 66.053 46.5769 64.5928 47.5401 62.121C47.895 61.2093 48.2627 60.2818 48.3569 60.0594C48.5737 59.5467 48.5779 59.4297 48.3769 59.48C48.294 59.5009 47.0211 59.5493 45.5489 59.5883C41.8924 59.6846 42.123 59.8419 42.1627 57.2795C42.1966 55.0759 42.0885 55.1774 44.4814 55.101C45.315 55.0743 46.0105 55.0391 46.0269 55.0227C46.0437 55.0063 45.4495 54.5435 44.7066 53.9946C40.5753 50.9418 38.8582 48.6988 38.4479 45.8174C38.3972 45.4626 38.2843 45.0781 38.1227 44.711C37.6021 43.529 37.3272 42.4803 37.2121 41.2344C37.125 40.2943 37.1592 40.3498 36.6637 40.3498C35.3772 40.3498 34.753 39.4526 34.2114 36.8254C33.9869 35.7355 33.8063 35.0668 33.2376 33.2183C32.3334 30.2772 32.1214 28.7329 32.4876 27.7432C32.6553 27.2898 33.094 26.8973 33.4327 26.8973C33.5982 26.8973 33.6021 26.9488 33.3789 26.1967C33.2756 25.8496 33.0534 24.9804 32.8847 24.2653C32.705 23.5052 32.5176 22.747 32.3224 21.9907C31.7514 19.817 31.8598 19.3459 33.1869 18.2385C33.4314 18.0345 33.615 17.8093 33.7314 17.5721L33.9069 17.2137L33.7979 16.7754C33.656 16.2041 33.4411 15.7387 33.034 15.1183C32.6463 14.527 32.6566 14.321 33.1021 13.7322C33.5385 13.1554 33.9085 13.0239 35.1227 13.0155C35.8356 13.0104 36.2108 12.9804 36.3895 12.9137L36.6434 12.8189L36.3243 12.6327C35.8776 12.3716 35.066 11.5305 34.8343 11.0893C34.5779 10.5998 34.623 10.5605 35.5514 10.4641C37.6253 10.2492 39.0992 9.25399 39.494 7.80217C39.6521 7.22047 39.8014 7.10445 41.1121 6.54435C45.1379 4.82472 49.385 4.1689 52.8534 4.73158V4.73158ZM48.8856 6.20661C45.6147 6.54274 43.5921 7.04419 42.9089 7.68905C42.6521 7.93107 42.7476 7.99907 43.3727 8.01905C44.5566 8.05644 44.5824 8.50955 43.4221 8.89563C42.0305 9.35873 39.9808 10.6555 39.4372 11.4167C39.1569 11.8089 39.1269 11.8109 40.2721 11.3697C44.0614 9.90981 47.3663 10.4245 50.1866 12.9134C51.5569 14.1228 51.5914 14.2382 50.7889 14.9243C50.1134 15.5021 50.084 15.5063 49.3185 15.1435C47.7082 14.3784 45.2947 14.195 44.1114 14.7477C41.9134 15.7735 40.6308 17.8915 39.8672 21.7571C39.5305 23.4606 39.5801 23.3533 39.0124 23.615C38.1543 24.0113 37.8101 24.5905 37.7956 25.6627C37.7947 25.7484 38.2327 25.7603 41.356 25.7603C45.9982 25.7603 46.3601 25.8338 47.9566 27.1045C48.5114 27.5466 48.696 27.5966 49.2124 27.4467C49.5885 27.3372 49.8408 27.3391 50.7395 27.4564C51.0243 27.4938 51.0505 27.4815 51.7153 26.9923C53.296 25.8289 53.8185 25.729 58.3589 25.7281C60.8372 25.7278 61.2105 25.7416 61.8718 25.857C62.2782 25.9279 62.7211 25.9865 62.855 25.9872L63.0992 25.9875V25.6008C63.0992 24.352 62.4279 22.3214 61.7014 21.3736C61.2427 20.7748 61.2579 20.8525 61.2718 19.1725C61.285 17.5476 61.286 17.5392 61.4708 17.5392C61.9682 17.5392 63.0627 19.9762 63.9779 23.1203C64.5318 25.023 64.7634 24.866 64.9279 22.4783C65.1808 18.8141 64.3795 15.1692 62.7921 12.7625C60.1405 8.74319 53.7098 5.71128 48.8856 6.20661V6.20661ZM42.1856 13.0207C41.4192 13.1422 40.9792 13.2859 40.054 13.7155C38.5772 14.401 36.3792 15.0046 35.3589 15.0046C34.8585 15.0046 34.8318 15.0861 35.1247 15.7197C35.8221 17.2285 35.8124 17.7113 35.066 18.7406C33.9811 20.2376 33.8756 20.75 34.2766 22.5756C34.6347 24.2063 35.226 26.5073 35.2872 26.5073C35.8469 26.5073 36.1172 26.0678 36.1808 25.0545C36.293 23.2608 36.6163 21.5254 37.1053 20.0864C37.4037 19.2086 37.4853 19.0874 38.2692 18.3623C38.8601 17.8151 38.9724 17.6739 39.2905 17.0764C40.2156 15.3413 41.4679 14.146 43.0598 13.4789C43.6911 13.2147 43.7405 13.1441 43.3847 13.0158C43.105 12.9146 42.8453 12.9159 42.1853 13.0207H42.1856ZM37.7382 26.6726C37.6179 26.7249 37.4421 26.768 37.3479 26.7684C36.9518 26.7706 36.9027 27.0484 37.286 27.1212C37.4047 27.1438 37.6227 27.1934 37.7705 27.2311C38.123 27.3214 38.315 27.2276 38.315 26.9649C38.315 26.6137 38.1118 26.5105 37.7382 26.6726V26.6726ZM61.6811 26.7155C61.4559 26.9401 61.6653 27.3294 61.9763 27.2653C62.0753 27.245 62.2885 27.2031 62.4508 27.1728C62.9321 27.0826 63.0876 26.8705 62.725 26.8003C62.6266 26.7809 62.4214 26.7368 62.2689 26.7017C61.9053 26.6179 61.7756 26.6211 61.6811 26.7155ZM40.2011 27.4245C39.315 27.5247 38.7689 27.8876 38.6643 28.4461C38.5466 29.0736 38.9482 29.0632 39.9347 28.4126C40.3582 28.1332 40.7969 27.8551 40.9089 27.7938C41.2256 27.6217 41.1518 27.3333 40.7979 27.361C40.7379 27.3655 40.4695 27.3942 40.2011 27.4245V27.4245ZM58.1195 27.4348C58.0182 27.6984 59.2034 28.6678 59.7992 28.8077C60.4514 28.9614 60.5795 27.8215 59.9418 27.5396C59.5389 27.3617 58.1776 27.2833 58.1195 27.4348ZM43.2589 27.6723C42.5708 27.8992 40.9137 28.8177 40.7637 29.0549C40.5108 29.4554 41.1572 29.4326 42.1024 29.0075C43.2647 28.4854 44.1008 28.3114 44.7876 28.448C45.2095 28.5325 45.2824 28.4641 45.1118 28.1461C44.8321 27.624 44.0285 27.4184 43.2589 27.6723ZM55.6834 27.8747C54.7456 28.2096 54.3769 28.7474 55.1872 28.5982C56.2695 28.399 56.9147 28.5189 57.5776 29.042C58.2276 29.5553 58.953 29.8302 59.1776 29.6478C59.2547 29.5856 59.2682 29.5431 59.2182 29.5222C59.0163 29.4368 58.5159 29.0591 57.9276 28.5476C56.9682 27.7142 56.5143 27.5782 55.6834 27.8747ZM62.7814 28.0123C61.8308 28.2605 61.7859 28.3256 61.4711 29.9195C60.843 33.0964 59.844 34.2411 57.6995 34.2411C56.7608 34.2411 56.7879 33.3562 57.7324 33.1673C58.7121 32.9717 59.3614 32.5721 59.6276 32.0017C59.9118 31.3916 59.845 31.2885 59.0934 31.1793C58.5089 31.0945 58.4553 31.0642 58.2779 30.7171C58.0253 30.2221 57.4243 30.0842 56.4966 30.3078C55.546 30.5373 53.8179 30.3433 52.965 29.9115C52.354 29.6021 52.2592 29.6601 52.5172 30.186C52.7576 30.6752 52.4834 31.138 51.8608 31.2943C51.5195 31.3797 51.0137 30.6417 50.7401 29.6594C50.5414 28.9463 50.3553 28.7713 49.795 28.7713C49.1379 28.7713 49.0643 28.9463 48.6611 31.4793C48.543 32.2199 48.483 32.4158 48.1737 33.0713C47.4766 34.5483 47.5089 35.3762 48.2947 36.1612C49.3101 37.1757 50.8601 37.3994 52.2934 36.7381C53.4492 36.2041 53.5624 36.0497 53.3789 35.2582C53.166 34.3423 53.2885 34.1851 54.024 34.4261C54.8734 34.7049 55.4892 35.2434 56.315 36.4294C56.9779 37.3817 57.505 37.9028 58.1456 38.2383C58.9053 38.6353 58.9634 38.761 58.9895 40.0526C59.0218 41.6601 58.7989 42.4471 58.0934 43.2115C57.743 43.5915 57.5847 43.9695 57.4411 44.769C57.2585 45.7842 56.9266 46.3939 56.5563 46.3939C56.294 46.3939 56.1427 45.6978 56.1398 44.4748C56.1372 43.4642 55.4405 43.1535 54.1111 43.5708C52.6576 44.0272 51.846 44.1184 50.445 43.983C49.2147 43.8644 49.0637 43.8744 48.5643 44.1077C47.9721 44.3849 47.9343 44.6862 48.4779 44.7948C49.1376 44.9266 49.4079 45.2831 49.4766 46.1106C49.5637 47.1596 49.2556 47.3859 48.8189 46.5934C48.335 45.7152 48.0789 45.7903 48.2043 46.7732C48.3053 47.5647 48.2472 48.0024 47.8669 49.3031C47.4208 50.8293 47.4463 51.4268 48.0059 52.5999C48.6359 53.9212 49.9195 55.3646 50.9518 55.9125C51.2647 56.0788 51.313 56.0262 51.4324 55.3949C51.5621 54.7101 51.7511 54.3185 52.2614 53.6791C52.9959 52.7581 53.034 52.6698 53.0766 51.7691C53.124 50.7732 53.1895 50.7023 53.6492 51.1503C54.0621 51.5538 54.2692 51.5886 54.9034 51.3624C58.5401 50.0636 60.9585 46.3659 61.4092 41.4152C61.5995 39.3253 61.5408 39.5834 61.9947 38.8306C62.494 38.0017 62.584 37.9408 63.0253 38.1303C63.8737 38.4951 64.3414 37.7426 65.0189 34.9237C65.1898 34.2305 65.3724 33.5402 65.5666 32.8531C66.5311 29.4554 66.4976 28.4574 65.4182 28.4574C65.0001 28.4574 64.6798 29.283 64.7959 30.0626L64.876 30.5989L64.6869 30.9031C64.4892 31.2208 63.9524 31.6417 63.745 31.6417C63.5237 31.6417 63.5043 31.4554 63.5698 29.9843C63.6624 27.9156 63.614 27.7951 62.7814 28.0123V28.0123ZM34.3956 28.7513C34.0053 29.1412 33.9863 29.9952 34.3392 31.3166C35.3682 35.1702 35.3956 35.2479 35.8282 35.5441C36.3314 35.8883 36.3505 35.227 35.9047 32.8763C35.5837 31.1822 35.5208 30.4184 35.6724 30.0578C36.0792 29.0887 35.0805 28.0668 34.3956 28.7513V28.7513ZM42.3666 30.176C41.9218 30.3149 41.5382 30.574 41.1611 30.9907C40.6566 31.5476 40.4701 31.5418 39.6801 30.943C39.3521 30.6946 39.205 30.6788 39.0666 30.8763C38.7527 31.3236 39.4147 32.2402 40.375 32.6878C41.0398 32.9978 41.1472 33.2808 40.7776 33.7507C40.573 34.0104 40.2598 33.9534 39.304 33.4819C38.4679 33.0694 38.3427 33.2992 38.704 34.5827C39.5169 37.4774 40.4585 37.992 42.4514 36.6324C42.7411 36.4348 43.2243 36.1786 43.525 36.0629C44.2166 35.7974 44.2082 35.8051 44.3637 35.2837C44.4356 35.0433 44.5798 34.7184 44.685 34.5628C44.9356 34.1893 44.9295 34.1854 44.1537 34.2192C43.2521 34.2589 43.1611 34.2102 43.1611 33.6885C43.1611 33.2334 43.133 33.2495 44.1163 33.1419C45.7285 32.9653 46.7363 32.0913 46.2592 31.2834C46.0695 30.9624 46.0856 30.7767 46.3256 30.5031C46.6089 30.1809 46.5224 30.1467 45.7147 30.2621C45.0456 30.3572 44.9785 30.3555 44.1534 30.2205C43.1837 30.062 42.7656 30.0516 42.3663 30.176H42.3666ZM45.8631 34.4236C45.3663 34.9198 45.503 35.9759 46.1192 36.4039C46.5298 36.6891 46.7785 36.4738 46.6195 35.9704C46.4927 35.5686 46.4792 34.9804 46.5879 34.6169C46.7137 34.198 46.2208 34.0662 45.8631 34.4236V34.4236ZM53.4066 37.5383C53.3527 37.5589 53.2066 37.6401 53.0811 37.7188C52.9559 37.7974 52.6643 37.9305 52.4327 38.0146C52.1092 38.1325 51.9269 38.2547 51.6401 38.5457C50.8024 39.3955 49.2131 39.332 47.7653 38.3907C46.8918 37.8228 46.4311 37.9111 44.8698 38.945C44.4595 39.217 43.8708 39.5563 43.5614 39.6991C42.9334 39.9891 42.8911 40.0665 43.2221 40.3188C44.1569 41.031 47.1808 41.042 48.9979 40.3394C49.7295 40.0568 50.0969 40.0623 51.0437 40.3707C53.0501 41.0243 55.9414 40.9837 56.7985 40.2905C56.9624 40.1577 56.8398 39.895 56.6137 39.895C56.2572 39.895 55.3505 39.1893 54.7663 38.4574C54.0514 37.5618 53.7953 37.3884 53.4066 37.5383V37.5383ZM40.2776 39.6939C39.1885 40.0697 38.7827 41.2753 39.2237 42.8232C40.2511 46.4262 42.6563 49.2776 44.654 49.2602C45.4553 49.2531 45.4656 49.2102 44.9905 47.8486C44.8647 47.4871 44.625 46.7123 44.4582 46.1264C44.2914 45.5409 44.1311 45.0359 44.1018 45.0046C44.0069 44.9028 43.734 45.2789 43.5121 45.8158C43.1927 46.5889 42.9905 46.6253 42.5818 45.9834C41.9689 45.0198 41.2421 41.9637 41.2421 40.3494C41.2421 39.6588 40.9518 39.4613 40.2776 39.6939V39.6939ZM48.3453 41.8564C47.5447 41.9373 47.4789 42.0523 48.0363 42.3946L48.3576 42.5921L49.565 42.5818C51.3247 42.5663 53.2989 42.2354 53.0589 41.9953C52.9134 41.8502 49.4292 41.7471 48.3453 41.8567V41.8564ZM76.3695 75.256C77.8927 75.4036 79.385 75.7459 79.6056 75.9982C79.8059 76.2274 79.8127 76.1748 79.2582 78.6924C78.653 81.4381 78.7901 81.2274 77.6089 81.2274C76.5101 81.2274 76.4863 81.2103 76.4282 80.3914C76.3185 78.8406 75.2076 78.0724 73.2498 78.1929C70.3192 78.374 68.0427 80.7279 67.5505 84.0866C66.8408 88.9312 70.8982 91.5381 76.7924 90.024C78.2753 89.6428 78.3085 89.6847 77.9634 91.5116C77.675 93.0376 77.7163 92.9802 76.6947 93.2464C73.6618 94.0356 69.5108 94.0466 66.9369 93.2722C62.0572 91.8036 59.9385 87.597 61.5708 82.6186C63.3043 77.3321 68.9269 74.5348 76.3695 75.256V75.256ZM33.1956 75.6518L33.3272 75.8278L33.174 76.5561C33.0014 77.3788 32.9156 77.5113 32.4479 77.6808C32.1137 77.8013 31.6743 78.1971 31.555 78.4849C31.4772 78.6724 30.3808 83.5848 30.4092 83.617C30.4318 83.6421 36.7043 78.431 36.8005 78.3076C37.0018 78.0479 36.8737 77.7788 36.4456 77.5622C36.3163 77.4965 36.2179 77.3872 36.1901 77.278C36.1205 77.0044 36.3972 75.7775 36.5695 75.5938L36.7114 75.4433H44.6021L44.7527 75.6035C44.9211 75.7823 44.9172 75.917 44.7172 76.7939C44.5682 77.4491 44.5092 77.5036 43.8205 77.6221C43.1895 77.7304 42.4614 77.9895 42.055 78.2503C41.8379 78.3898 35.9318 83.2657 35.6556 83.5335C35.5795 83.6077 35.9482 84.1384 38.0285 86.9528C41.2172 91.2674 41.2556 91.3076 42.3147 91.4259C43.1153 91.5158 43.1921 91.6431 42.9953 92.5558C42.7363 93.7546 43.0105 93.6631 39.7985 93.6225C34.9221 93.5603 34.0605 92.9467 30.8792 87.2712C30.5898 86.7528 30.2986 86.2355 30.0056 85.7192C29.9272 85.5893 28.9214 90.2103 28.9724 90.4655C29.0331 90.7688 29.2314 90.9973 29.6095 91.1994C30.2611 91.5471 30.2669 91.5651 30.0489 92.5464C29.8718 93.3437 29.8153 93.4788 29.6231 93.5664C29.5085 93.6186 28.1908 93.6396 25.0501 93.6396C19.675 93.6396 20.1024 93.7585 20.4292 92.3589C20.6027 91.6157 20.6676 91.5242 21.0831 91.4349C21.9782 91.2432 22.5524 90.5713 22.9201 89.2854C23.015 88.9531 25.0427 79.7269 25.136 79.2029C25.2431 78.6002 24.9198 77.9976 24.3498 77.7366C23.7769 77.4746 23.754 77.3988 23.9595 76.461C24.2095 75.3173 23.6285 75.4394 28.7369 75.4591L33.0643 75.4758L33.1956 75.6518ZM62.2237 75.6028C62.4285 75.8075 62.4601 75.5751 61.864 78.2628C61.2376 81.0891 61.4037 80.8371 60.1666 80.8371C58.9692 80.8371 58.936 80.8139 58.936 79.9718C58.936 79.287 58.786 78.958 58.3605 78.7079L58.0579 78.53L55.7698 78.5106L53.4821 78.4916L53.4037 78.868C53.3608 79.0756 53.1295 80.1371 52.8892 81.2271L52.453 83.2093L55.3785 83.2416L58.304 83.2744L58.4379 83.4536L58.5718 83.6328L58.2672 85.0079C58.035 86.0556 57.9285 86.4191 57.8195 86.5348L57.6776 86.6863H51.6808L51.3324 88.2799C50.8518 90.4746 50.884 90.6995 51.7614 91.2848C51.9614 91.4182 52.1459 91.5861 52.1711 91.6576C52.2511 91.8855 51.8856 93.385 51.7163 93.5216C51.5392 93.665 44.6501 93.7079 44.3421 93.5677C43.9734 93.3998 43.9234 93.6982 45.5621 86.2764C47.3534 78.1629 47.1901 78.977 47.0956 78.6218C46.9853 78.2074 46.7511 77.9373 46.3092 77.7146C45.765 77.4401 45.7427 77.3653 45.9324 76.4694C46.0434 75.946 46.1292 75.6937 46.2314 75.5896L46.375 75.4433H62.064L62.2237 75.6028Z" fill="#FBFBFB"/>
<path fill-rule="evenodd" clip-rule="evenodd" d="M98.765 4.7042C98.7656 4.88306 98.7779 4.94848 98.7931 4.84922C98.8079 4.74154 98.8077 4.63232 98.7924 4.52469C98.7769 4.44477 98.7647 4.52534 98.765 4.7042ZM49.6498 6.14635C49.7121 6.16247 49.8144 6.16247 49.8773 6.14635C49.9398 6.12992 49.8886 6.1167 49.7634 6.1167C49.6382 6.1167 49.5869 6.12959 49.6498 6.14635ZM50.235 6.14635C50.2979 6.16247 50.4002 6.16247 50.4627 6.14635C50.5253 6.12992 50.474 6.1167 50.3489 6.1167C50.2237 6.1167 50.1724 6.12959 50.235 6.14635V6.14635ZM34.5576 13.0349C34.6205 13.051 34.7227 13.051 34.7857 13.0349C34.8482 13.0187 34.7969 13.0052 34.6718 13.0052C34.5466 13.0052 34.4953 13.0184 34.5579 13.0349H34.5576ZM35.5976 17.5392C35.5976 17.6646 35.6111 17.7158 35.6273 17.653C35.6434 17.578 35.6434 17.5004 35.6273 17.4255C35.6111 17.3629 35.5976 17.4142 35.5976 17.5392ZM61.2924 18.5789C61.2924 18.7042 61.3056 18.7555 61.3221 18.6926C61.3382 18.6301 61.3382 18.5283 61.3221 18.4654C61.306 18.4029 61.2924 18.4541 61.2924 18.5789ZM32.024 20.2037C32.024 20.4003 32.0363 20.4809 32.0515 20.3823C32.0662 20.2636 32.0662 20.1436 32.0515 20.0249C32.0363 19.9269 32.024 20.0072 32.024 20.2037ZM36.1831 25.2727C36.1831 25.3978 36.1963 25.449 36.2128 25.3865C36.2289 25.3115 36.2289 25.2339 36.2128 25.159C36.1963 25.0964 36.1831 25.1477 36.1831 25.2727V25.2727ZM38.8186 25.7735C38.8992 25.789 39.0308 25.789 39.1115 25.7735C39.1921 25.7581 39.126 25.7455 38.965 25.7455C38.804 25.7455 38.7382 25.7581 38.8189 25.7735H38.8186ZM44.0234 25.7735C44.104 25.7893 44.2215 25.7887 44.2837 25.7726C44.346 25.7561 44.2795 25.7436 44.1366 25.7439C43.9934 25.7448 43.9424 25.7584 44.0237 25.7738L44.0234 25.7735ZM55.9605 25.7745C56.0592 25.7893 56.2056 25.789 56.2856 25.7735C56.3656 25.7581 56.285 25.7458 56.1056 25.7461C55.9269 25.7468 55.8615 25.7593 55.9605 25.7745V25.7745ZM49.6821 27.3981C49.7627 27.4136 49.8944 27.4136 49.975 27.3981C50.0556 27.3826 49.9892 27.3701 49.8285 27.3701C49.6673 27.3701 49.6018 27.3829 49.6821 27.3981V27.3981ZM67.9276 28.9121C67.9276 29.0371 67.9408 29.0884 67.9573 29.0259C67.9734 28.9509 67.9734 28.8733 67.9573 28.7983C67.9411 28.7358 67.9276 28.7871 67.9276 28.9121V28.9121ZM34.0398 29.8544C34.0402 30.0333 34.0528 30.0987 34.0679 29.9994C34.0828 29.8918 34.0825 29.7825 34.0669 29.6749C34.0515 29.595 34.0392 29.6759 34.0398 29.8544ZM42.9179 30.0629C42.9986 30.0784 43.1157 30.0778 43.1779 30.0616C43.2398 30.0455 43.1737 30.0326 43.0308 30.0333C42.8876 30.0343 42.8366 30.0475 42.9179 30.0629V30.0629ZM43.796 34.2228C43.8947 34.2376 44.0411 34.2373 44.1211 34.2218C44.2011 34.2064 44.1202 34.1941 43.9415 34.1947C43.7624 34.1951 43.6973 34.2076 43.796 34.2228V34.2228ZM57.6189 34.2221C57.7002 34.2376 57.8169 34.237 57.8792 34.2209C57.9414 34.2047 57.875 34.1918 57.7321 34.1925C57.5889 34.1935 57.5382 34.2067 57.6192 34.2221H57.6189ZM63.3427 40.3308C63.4234 40.3462 63.5547 40.3462 63.6353 40.3308C63.716 40.3153 63.6502 40.3027 63.4889 40.3027C63.3279 40.3027 63.2621 40.3156 63.3427 40.3308ZM45.3563 40.9147C45.4189 40.9308 45.5211 40.9308 45.584 40.9147C45.6466 40.8986 45.5953 40.8847 45.4702 40.8847C45.345 40.8847 45.2937 40.8983 45.3563 40.9147V40.9147ZM49.8782 41.762C49.9953 41.7761 50.1708 41.7758 50.2685 41.761C50.3666 41.7465 50.2708 41.7342 50.0563 41.7349C49.8415 41.7349 49.7615 41.7475 49.8782 41.762V41.762ZM48.2173 47.3688C48.2173 47.4938 48.2308 47.5448 48.2469 47.4822C48.2634 47.4074 48.2634 47.3299 48.2469 47.255C48.2308 47.1922 48.2173 47.2434 48.2173 47.3688ZM42.1782 57.2141C42.1782 57.7146 42.1886 57.9109 42.2008 57.6502C42.2131 57.3894 42.2131 56.9798 42.2008 56.7404C42.1879 56.5003 42.1782 56.714 42.1782 57.2141ZM45.584 59.5683C45.7002 59.5828 45.8905 59.5828 46.0066 59.5683C46.1227 59.5538 46.0279 59.5422 45.7953 59.5422C45.5627 59.5422 45.4676 59.5538 45.584 59.5683ZM50.0444 68.9444C50.0444 69.1771 50.0563 69.2718 50.0705 69.1558C50.085 69.0155 50.085 68.874 50.0705 68.7337C50.0563 68.6173 50.0447 68.7121 50.0447 68.9444H50.0444ZM54.4998 78.4813C55.0837 78.4923 56.0202 78.4923 56.5815 78.4813C57.1427 78.4704 56.6653 78.4617 55.5205 78.4617C54.3753 78.4617 53.9163 78.4707 54.4998 78.4813V78.4813ZM76.4527 80.5448C76.4531 80.7237 76.4656 80.7891 76.4808 80.6898C76.4957 80.5822 76.4954 80.4729 76.4798 80.3653C76.4643 80.2854 76.4521 80.366 76.4527 80.5448V80.5448ZM77.2311 81.2103C77.4366 81.2232 77.7731 81.2232 77.9792 81.2103C78.1847 81.1974 78.0163 81.1868 77.605 81.1868C77.1934 81.1868 77.0253 81.1974 77.2308 81.2103H77.2311ZM53.1624 86.6699C53.9763 86.6802 55.3082 86.6802 56.1221 86.6699C56.9363 86.6596 56.2702 86.6512 54.6424 86.6512C53.0144 86.6512 52.3486 86.6596 53.1624 86.6699V86.6699ZM22.914 93.6235C24.1215 93.6335 26.0973 93.6335 27.3047 93.6235C28.5121 93.6138 27.5244 93.6054 25.1092 93.6054C22.6944 93.6054 21.7063 93.6138 22.9137 93.6235H22.914ZM39.4408 93.6235C40.0063 93.6341 40.9137 93.6341 41.4573 93.6235C42.0005 93.6125 41.5379 93.6038 40.4286 93.6038C39.3195 93.6038 38.875 93.6128 39.4408 93.6235V93.6235ZM46.1973 93.6235C47.1518 93.6338 48.7327 93.6338 49.7102 93.6235C50.6876 93.6135 49.9066 93.6051 47.9747 93.6051C46.0424 93.6051 45.2427 93.6135 46.1973 93.6235Z" fill="#7C7C7C"/>
<path fill-rule="evenodd" clip-rule="evenodd" d="M27.1695 1.2762C39.6979 1.28522 60.2179 1.28522 72.7702 1.2762C85.3218 1.26686 75.0715 1.25977 49.9915 1.25977C24.9111 1.25977 14.6414 1.26686 27.1695 1.2762V1.2762ZM49.9102 4.58978C50.1156 4.60267 50.4521 4.60267 50.6586 4.58978C50.8637 4.57689 50.6956 4.56625 50.2844 4.56625C49.8727 4.56625 49.7044 4.57689 49.9102 4.58978ZM45.7469 14.4016C45.8453 14.4164 46.0063 14.4164 46.1047 14.4016C46.2031 14.3864 46.1227 14.3742 45.9256 14.3742C45.7289 14.3742 45.6486 14.3864 45.7469 14.4016ZM61.2927 18.1892C61.2927 18.3143 61.306 18.3652 61.3224 18.303C61.3386 18.228 61.3386 18.1504 61.3224 18.0755C61.3063 18.0126 61.2927 18.0639 61.2927 18.1892ZM33.9727 20.9511C33.9737 21.0938 33.9869 21.1451 34.0024 21.0639C34.0182 20.9833 34.0176 20.8663 34.0011 20.8041C33.985 20.7419 33.9721 20.808 33.9727 20.9511ZM40.3802 25.7764C41.0331 25.7871 42.1018 25.7871 42.7544 25.7764C43.4076 25.7658 42.8734 25.7571 41.5673 25.7571C40.2615 25.7571 39.7273 25.7658 40.3802 25.7764V25.7764ZM56.8082 25.7761C57.0899 25.7886 57.372 25.7885 57.6537 25.7758C57.876 25.7632 57.6769 25.7526 57.2121 25.7532C56.7469 25.7532 56.565 25.7635 56.8082 25.7758V25.7761ZM59.4398 25.7758C59.6992 25.7883 60.1237 25.7883 60.3831 25.7758C60.6424 25.7638 60.4305 25.7532 59.9118 25.7532C59.3927 25.7532 59.1805 25.7638 59.4398 25.7758ZM63.6373 28.847C63.6373 29.0081 63.6502 29.0739 63.6653 28.9933C63.6808 28.8964 63.6808 28.7976 63.6653 28.7007C63.6498 28.6204 63.6373 28.6862 63.6373 28.8473V28.847ZM32.3453 29.2373C32.3453 29.3623 32.3589 29.4135 32.375 29.3507C32.3911 29.2757 32.3911 29.1982 32.375 29.1232C32.3589 29.061 32.3453 29.1119 32.3453 29.2369V29.2373ZM36.2508 35.0861C36.2508 35.247 36.2637 35.3127 36.2792 35.2321C36.2947 35.1516 36.2947 35.0201 36.2792 34.9398C36.2637 34.8593 36.2508 34.925 36.2508 35.0858V35.0861ZM48.0724 36.0162C48.0724 36.0272 48.1676 36.1226 48.2837 36.2273L48.4953 36.4184L48.304 36.207C48.126 36.0104 48.0724 35.9659 48.0724 36.0162V36.0162ZM50.074 39.0971C50.2037 39.1115 50.3347 39.1114 50.4644 39.0968C50.5621 39.0816 50.4663 39.07 50.2515 39.0704C50.0369 39.0707 49.9569 39.0826 50.074 39.0971ZM41.2573 40.285C41.2573 40.41 41.2705 40.4613 41.2869 40.3987C41.3031 40.3238 41.3031 40.2462 41.2869 40.1712C41.2708 40.1087 41.2573 40.1599 41.2573 40.285V40.285ZM62.9915 41.0649C62.9915 41.3685 63.0027 41.4929 63.0166 41.3411C63.0305 41.1893 63.0305 40.9405 63.0166 40.7887C63.0027 40.6366 62.9915 40.761 62.9915 41.0649ZM45.7802 40.9157C45.8608 40.9311 45.9782 40.9308 46.0402 40.9147C46.1024 40.8986 46.0363 40.8857 45.8934 40.8863C45.7502 40.887 45.6992 40.9002 45.7802 40.9157ZM49.3576 41.7607C49.4389 41.7761 49.556 41.7755 49.6182 41.7594C49.6802 41.7433 49.6144 41.7304 49.4708 41.731C49.3279 41.732 49.2773 41.7452 49.3579 41.7607H49.3576ZM50.5282 41.7607C50.6085 41.7761 50.7402 41.7761 50.8208 41.7607C50.9015 41.7452 50.8353 41.7323 50.6744 41.7323C50.5134 41.7323 50.4476 41.7452 50.5282 41.7607ZM58.0902 49.3507C57.9321 49.5119 57.8176 49.6434 57.8353 49.6434C57.8534 49.6434 57.9973 49.5116 58.1553 49.3507C58.3134 49.1899 58.4279 49.0585 58.4102 49.0585C58.3921 49.0585 58.2482 49.1899 58.0902 49.3507ZM59.194 50.8615L58.7731 51.3005L59.2124 50.8799C59.454 50.6485 59.6515 50.4513 59.6515 50.441C59.6515 50.3933 59.5853 50.4539 59.194 50.8615V50.8615ZM53.1008 51.7878C53.1008 51.9843 53.1131 52.0649 53.1279 51.9663C53.1429 51.8477 53.1429 51.7278 53.1279 51.6092C53.1131 51.5109 53.1008 51.5912 53.1008 51.7878ZM57.6615 57.7665C57.6615 58.3562 57.6711 58.5976 57.6834 58.3028C57.6953 58.0079 57.6953 57.5254 57.6834 57.2306C57.6711 56.9357 57.6615 57.1767 57.6615 57.7665ZM42.1721 58.4165C42.1721 58.6131 42.1844 58.6937 42.1995 58.5951C42.2143 58.4764 42.2143 58.3563 42.1995 58.2377C42.1844 58.1397 42.1721 58.2199 42.1721 58.4165ZM47.6982 59.5013C47.7611 59.5174 47.8634 59.5174 47.926 59.5013C47.9889 59.4848 47.9376 59.4713 47.8121 59.4713C47.6869 59.4713 47.636 59.4848 47.6982 59.5013V59.5013ZM44.9015 59.568C44.9995 59.5828 45.1605 59.5828 45.2589 59.568C45.3576 59.5528 45.2769 59.5406 45.0802 59.5406C44.8834 59.5406 44.8027 59.5528 44.9011 59.568H44.9015ZM43.1134 59.6334C43.2431 59.648 43.374 59.6477 43.5037 59.6328C43.6018 59.6179 43.506 59.606 43.2911 59.6063C43.0766 59.607 42.9966 59.6189 43.1137 59.6334H43.1134ZM53.0963 67.5796C53.0963 67.705 53.1098 67.7562 53.1263 67.6934C53.1424 67.6308 53.1424 67.5284 53.1263 67.4662C53.1102 67.4036 53.0963 67.4546 53.0963 67.5796ZM50.0424 69.627C50.0431 69.8055 50.0556 69.8713 50.0708 69.772C50.0853 69.6734 50.0853 69.5271 50.0698 69.4475C50.0544 69.3672 50.0421 69.4481 50.0424 69.627V69.627ZM26.5569 75.4923C27.7289 75.502 29.646 75.502 30.8179 75.4923C31.9895 75.482 31.0308 75.4739 28.6873 75.4739C26.344 75.4739 25.3853 75.482 26.5569 75.492V75.4923ZM38.7215 75.492C39.786 75.502 41.5279 75.502 42.5918 75.492C43.6563 75.482 42.7853 75.4739 40.6566 75.4739C38.5279 75.4739 37.6569 75.482 38.7211 75.492H38.7215ZM50.3379 75.492C52.4963 75.5016 56.0089 75.5016 58.1444 75.492C60.2792 75.4826 58.5131 75.4746 54.2198 75.4746C49.9263 75.4746 48.1795 75.4826 50.3379 75.492ZM73.3592 78.1546C73.5107 78.1691 73.6632 78.1693 73.8147 78.1552C73.9495 78.141 73.8553 78.1294 73.6047 78.1291C73.3544 78.1291 73.2437 78.1404 73.3595 78.1546H73.3592ZM53.8453 83.2906C54.6415 83.3009 55.944 83.3009 56.7402 83.2906C57.5363 83.2799 56.885 83.2719 55.2927 83.2719C53.7005 83.2719 53.0492 83.2799 53.8453 83.2906ZM67.4121 85.1588C67.4127 85.3734 67.4247 85.4533 67.4392 85.3367C67.4536 85.2071 67.4534 85.0762 67.4386 84.9467C67.4237 84.8491 67.4118 84.9444 67.4121 85.1588V85.1588ZM61.0366 85.9064C61.0366 86.103 61.0489 86.1836 61.0637 86.085C61.0787 85.9663 61.0787 85.8462 61.0637 85.7276C61.0489 85.6293 61.0366 85.7095 61.0366 85.9064ZM73.2302 90.5026C73.3466 90.5168 73.5366 90.5168 73.6531 90.5026C73.7692 90.4881 73.6744 90.4762 73.4418 90.4762C73.2092 90.4762 73.114 90.4881 73.2305 90.5026H73.2302ZM70.3356 93.8146C70.3982 93.8307 70.5005 93.8307 70.5634 93.8146C70.626 93.7982 70.5747 93.7849 70.4492 93.7849C70.3244 93.7849 70.2731 93.7982 70.3356 93.8146V93.8146ZM72.2221 93.8146C72.2847 93.8307 72.3873 93.8307 72.4498 93.8146C72.5124 93.7982 72.4611 93.7849 72.336 93.7849C72.2108 93.7849 72.1595 93.7982 72.2221 93.8146V93.8146ZM30.8827 98.7576C41.4105 98.7666 58.6376 98.7666 69.165 98.7576C79.6924 98.7485 71.0792 98.7415 50.024 98.7415C28.9685 98.7415 20.3553 98.7485 30.8827 98.7576" fill="#6C6C6C"/>
<path fill-rule="evenodd" clip-rule="evenodd" d="M62.0576 9.38322C62.1792 9.50859 62.2931 9.61075 62.3108 9.61075C62.3286 9.61075 62.2441 9.50859 62.1228 9.38322C62.0012 9.25818 61.8873 9.1557 61.8695 9.1557C61.8518 9.1557 61.9363 9.25818 62.0576 9.38322ZM63.0986 91.0727C63.2199 91.1978 63.3338 91.3003 63.3518 91.3003C63.3696 91.3003 63.285 91.1978 63.1634 91.0727C63.0421 90.9477 62.9279 90.8452 62.9102 90.8452C62.8925 90.8452 62.977 90.9477 63.0986 91.0727Z" fill="#9C9C9C"/>
<path fill-rule="evenodd" clip-rule="evenodd" d="M1.25586 4.73673C1.25586 4.93332 1.26812 5.01389 1.28296 4.91527C1.29773 4.79649 1.29773 4.67634 1.28296 4.55755C1.26812 4.45958 1.25586 4.54015 1.25586 4.73673ZM43.2433 8.03226C43.3239 8.04773 43.4417 8.04676 43.5036 8.03065C43.5659 8.01454 43.4994 8.00165 43.3565 8.00229C43.2133 8.00326 43.1623 8.01647 43.2436 8.03226H43.2433ZM43.8291 10.5666C43.9097 10.5821 44.0268 10.5814 44.0891 10.5653C44.1514 10.5492 44.0852 10.5363 43.942 10.5369C43.7991 10.5376 43.7478 10.5508 43.8291 10.5666V10.5666ZM61.2988 19.1641C61.2988 19.3961 61.3104 19.4912 61.3249 19.3752C61.3394 19.2592 61.3394 19.069 61.3249 18.953C61.3104 18.8367 61.2988 18.9314 61.2988 19.1641ZM67.9946 22.0558C67.9952 22.1989 68.0085 22.2498 68.0239 22.1689C68.0397 22.088 68.0391 21.9711 68.0226 21.9089C68.0065 21.847 67.9936 21.9127 67.9946 22.0558V22.0558ZM64.9359 22.2186C64.9359 22.3433 64.9494 22.3945 64.9655 22.332C64.982 22.2572 64.982 22.1796 64.9655 22.1048C64.9494 22.042 64.9359 22.0932 64.9359 22.2186ZM55.4391 25.7726C55.502 25.7887 55.6043 25.7887 55.6672 25.7726C55.7294 25.7564 55.6781 25.7426 55.5533 25.7426C55.4278 25.7426 55.3765 25.7561 55.4391 25.7726V25.7726ZM63.5694 29.887C63.5694 30.012 63.5826 30.0632 63.5994 30.0007C63.6155 29.9257 63.6155 29.8482 63.5994 29.7732C63.5826 29.7107 63.5694 29.7616 63.5694 29.887V29.887ZM38.983 41.7146C38.983 41.8757 38.9959 41.9415 39.011 41.8609C39.0265 41.7803 39.0265 41.6488 39.011 41.5686C38.9955 41.488 38.983 41.5538 38.983 41.7146ZM48.8043 42.6691C48.8668 42.6856 48.9691 42.6856 49.032 42.6691C49.0943 42.653 49.0433 42.6398 48.9181 42.6398C48.7926 42.6398 48.7414 42.6527 48.8043 42.6691V42.6691ZM50.9507 44.034C51.0133 44.0504 51.1159 44.0504 51.1784 44.034C51.241 44.0178 51.1897 44.0043 51.0646 44.0043C50.9394 44.0043 50.8881 44.0178 50.9507 44.034V44.034ZM51.6665 44.034C51.7288 44.0504 51.8314 44.0504 51.8939 44.034C51.9568 44.0178 51.9055 44.0043 51.7801 44.0043C51.6549 44.0043 51.6039 44.0178 51.6665 44.034ZM56.1594 44.769C56.1594 45.0014 56.1714 45.0965 56.1852 44.9805C56.1997 44.8401 56.1997 44.6986 56.1852 44.5583C56.1714 44.4419 56.1594 44.5367 56.1594 44.769ZM55.1801 54.9541C55.2788 54.9686 55.4252 54.9686 55.5052 54.9528C55.5852 54.9373 55.5046 54.9251 55.3252 54.9257C55.1465 54.9263 55.081 54.9389 55.1801 54.9541V54.9541ZM45.6501 55.083C45.7307 55.0988 45.8478 55.0981 45.9101 55.082C45.9723 55.0659 45.9062 55.053 45.763 55.0536C45.6201 55.0543 45.5691 55.0675 45.6501 55.083V55.083ZM57.7149 56.0768C57.7149 56.2022 57.7281 56.2534 57.7446 56.1906C57.7611 56.1157 57.7611 56.038 57.7446 55.9631C57.7285 55.9006 57.7149 55.9518 57.7149 56.0768V56.0768ZM54.2684 59.3714C54.331 59.3875 54.4333 59.3875 54.4959 59.3714C54.5588 59.3546 54.5075 59.3414 54.3823 59.3414C54.2572 59.3414 54.2059 59.3546 54.2684 59.3714ZM46.431 59.5683C46.5607 59.5829 46.6917 59.5827 46.8214 59.5677C46.9191 59.5528 46.8233 59.5412 46.6084 59.5416C46.3943 59.5419 46.3139 59.5538 46.431 59.5683ZM50.0423 63.7781C50.043 63.9567 50.0555 64.0224 50.0707 63.9231C50.0852 63.8245 50.0852 63.6782 50.0697 63.5983C50.0543 63.5184 50.042 63.5993 50.0423 63.7781V63.7781ZM50.0481 67.8722C50.0481 68.2654 50.0591 68.4178 50.072 68.2109C50.0849 68.0044 50.0849 67.6824 50.0717 67.4961C50.0588 67.3099 50.0481 67.4791 50.0481 67.8722ZM53.1717 69.1068C53.1717 69.5719 53.182 69.7533 53.1946 69.5106C53.2072 69.2291 53.2072 68.9472 53.1946 68.6657C53.1817 68.4439 53.1713 68.6421 53.1717 69.1072V69.1068ZM38.0713 93.6193C38.1336 93.6354 38.2362 93.6354 38.2988 93.6193C38.3613 93.6032 38.3101 93.5896 38.1849 93.5896C38.0597 93.5896 38.0084 93.6029 38.0713 93.6193Z" fill="#BCBCBC"/>
<path fill-rule="evenodd" clip-rule="evenodd" d="M4.32222 4.36292L4.13093 4.57433L4.34222 4.38355C4.45835 4.27816 4.55384 4.18342 4.55384 4.17214C4.55384 4.12186 4.50029 4.16601 4.32222 4.36292ZM3.85352 5.51665C3.85352 5.64169 3.86642 5.69293 3.88319 5.63041C3.89932 5.56757 3.89932 5.46541 3.88319 5.40256C3.86674 5.34037 3.85352 5.39161 3.85352 5.51665Z" fill="#F4839A"/>
<path fill-rule="evenodd" clip-rule="evenodd" d="M74.3851 37.0681C74.3851 55.3685 74.3925 62.8455 74.4016 53.6834C74.4109 44.5212 74.4109 29.5483 74.4016 20.4097C74.3925 11.2714 74.3855 18.7677 74.3855 37.0681H74.3851ZM50.6422 13.38C50.8183 13.5586 50.9771 13.7049 50.9951 13.7049C51.0129 13.7049 50.8832 13.5586 50.707 13.38C50.5309 13.2015 50.3719 13.0552 50.3541 13.0552C50.3361 13.0552 50.4658 13.2015 50.6422 13.38ZM40.7512 15.021L40.4941 15.2972L40.7706 15.0404C41.0277 14.8012 41.077 14.7448 41.0277 14.7448C41.017 14.7448 40.8929 14.8692 40.7512 15.021ZM60.0706 33.3475L59.8793 33.5586L60.0906 33.3678C60.2067 33.2628 60.3019 33.168 60.3019 33.1567C60.3019 33.1065 60.2483 33.1506 60.0703 33.3475H60.0706ZM55.0329 38.8106C55.0329 38.8219 55.128 38.917 55.2441 39.0217L55.4558 39.2125L55.2648 39.0014C55.0867 38.8048 55.0329 38.7604 55.0329 38.8106ZM63.9416 78.6763L63.7171 78.9203L63.9613 78.696C64.188 78.4878 64.2351 78.4327 64.1854 78.4327C64.1745 78.4327 64.0648 78.5423 63.9416 78.6763ZM68.6932 88.6561C68.6932 88.6673 68.7887 88.7624 68.9051 88.8675L69.1164 89.0582L68.9254 88.8472C68.7471 88.6503 68.6932 88.6061 68.6932 88.6561Z" fill="#CCCCCC"/>
</svg>
